<svg width="170" height="168" viewBox="0 0 170 168" fill="none" xmlns="http://www.w3.org/2000/svg">
<path d="M161.862 115.111C144.464 154.071 100.837 175.997 64.3595 164.009C60.4699 162.747 56.8432 161.117 53.4267 159.224C50.0627 157.331 46.909 155.123 44.0181 152.704L43.8604 152.547C43.7027 152.441 43.5976 152.284 43.4399 152.178L24.1497 135.564L20.2075 132.199C0.707046 113.796 -5.07476 82.88 8.11827 53.2258C25.5163 14.2651 69.1426 -7.66009 105.621 4.3278C112.349 6.5361 118.393 9.7434 123.597 13.7394L128.222 17.6827L146.461 33.246C168.642 51.2278 175.791 83.879 161.862 115.111Z" fill="url(#paint0_linear)" stroke="#082076" stroke-width="0.5" stroke-miterlimit="10"/>
<path d="M146.199 77.2016C145.095 83.6162 143.097 90.0834 140.259 96.4979C122.861 135.459 79.2347 157.384 42.7568 145.396C35.766 143.082 29.5637 139.717 24.2024 135.511C22.8358 134.46 21.5217 133.303 20.2602 132.146C0.759781 113.744 -5.02203 82.8275 8.17101 53.1733C22.0999 21.8891 53.0063 1.59376 83.4922 1.0154C91.0086 0.857666 98.4723 1.90924 105.673 4.27527C112.401 6.48357 118.446 9.69086 123.65 13.6868C125.279 14.9487 126.803 16.2632 128.275 17.6302C143.465 32.1419 150.246 54.1722 146.199 77.2016Z" fill="#A4D7FF" stroke="#082076" stroke-width="0.5" stroke-miterlimit="10"/>
<path d="M63.7289 136.51C57.6317 136.51 51.587 135.616 45.7527 133.671C40.6016 131.988 35.8185 129.57 31.5609 126.52H31.4558L29.5636 125.048C28.3021 124.102 27.1983 123.103 26.1471 122.104C9.16962 106.12 5.06976 80.3037 15.7398 56.4331C25.8843 33.6666 47.9603 16.9467 71.876 13.7394C80.9692 12.5301 89.7996 13.3188 98.1569 16.0528C103.886 17.9457 109.195 20.6798 113.82 24.2551C115.239 25.3592 116.606 26.5159 117.868 27.7253C131.218 40.3967 136.737 59.693 132.69 79.3573C131.691 84.0894 130.167 88.7689 128.17 93.2906C116.448 119.632 89.9047 136.51 63.7289 136.51ZM37.8684 116.478L38.3414 116.846C41.9157 119.632 45.9629 121.788 50.3781 123.26C54.7408 124.68 59.3136 125.363 63.8865 125.363C84.7536 125.363 106.304 111.167 116.081 89.2947C117.815 85.4038 119.129 81.4079 119.97 77.3593C123.334 61.06 118.971 45.2865 108.301 35.1388C107.355 34.245 106.357 33.3512 105.253 32.5099C101.784 29.8284 97.8415 27.7778 93.584 26.4108C87.3817 24.3602 80.7589 23.7819 73.9259 24.7283C54.478 27.3046 36.3966 41.2905 27.8816 60.3765C19.1038 80.0934 22.2575 101.861 35.8185 114.637C36.4493 115.321 37.1325 115.899 37.8684 116.478Z" fill="url(#paint1_linear)" stroke="#082076" stroke-width="0.5" stroke-miterlimit="10"/>
<path d="M59.7341 44.0773L65.3582 44.235L65.0954 53.3311C66.1992 53.3311 67.3556 53.3311 68.4594 53.3837H69.5632L69.826 44.3927L75.4501 44.5505L75.1873 53.8043C82.3357 54.6455 87.9599 56.959 88.5906 63.4787V63.7416C88.906 68.5263 86.9087 71.3655 83.7024 72.9954L83.4921 73.1006C88.7483 74.5202 92.0072 77.7275 91.2713 84.6679L91.2187 84.9833C90.1675 93.7639 83.5973 96.0248 74.2938 96.3403H73.9784L73.7156 105.699L68.0914 105.541L68.3543 96.3403C67.1979 96.2877 65.989 96.2877 64.7801 96.2351L63.8339 96.1825L63.5711 105.436L57.947 105.279L58.2098 95.9196C57.3163 95.8671 56.4227 95.8671 55.5292 95.8145L54.1625 95.7619L46.8564 95.5516L48.1705 88.8741C48.1705 88.8741 52.06 89.0319 52.2703 88.9793C53.7946 89.0319 54.2676 87.9803 54.4253 87.2442V87.139L55.1612 61.7962C55.0035 60.6921 54.3202 59.3776 52.2177 59.2724H52.0075C52.06 59.2199 48.1705 59.1673 47.9077 59.1673L48.0653 53.1734L55.8445 53.3837V53.4362C56.7381 53.4362 57.6316 53.4888 58.5252 53.4888H59.4187L59.7341 44.0773ZM64.5698 76.8862L64.2019 89.2948C67.9864 89.3999 79.7076 90.5041 80.1807 83.774V83.5637C80.391 76.3605 68.6171 76.9914 64.6749 76.9388L64.5698 76.8862ZM65.0429 59.956L64.7275 71.2078C67.8812 71.3129 77.6577 72.3119 78.0257 66.1602V65.9499C78.2359 59.3776 68.4068 60.0086 65.148 59.956H65.0429Z" fill="url(#paint2_linear)" stroke="#082076" stroke-width="0.5" stroke-miterlimit="10"/>
<defs>
<linearGradient id="paint0_linear" x1="107.959" y1="101.661" x2="157.097" y2="139.121" gradientUnits="userSpaceOnUse">
<stop offset="0.2615" stop-color="#2061EB"/>
<stop offset="1" stop-color="#5FB1FF"/>
</linearGradient>
<linearGradient id="paint1_linear" x1="9.89259" y1="74.8687" x2="134.024" y2="74.8687" gradientUnits="userSpaceOnUse">
<stop offset="0.2615" stop-color="#2061EB"/>
<stop offset="1" stop-color="#5FB1FF"/>
</linearGradient>
<linearGradient id="paint2_linear" x1="46.94" y1="74.8688" x2="91.4404" y2="74.8688" gradientUnits="userSpaceOnUse">
<stop offset="0.2615" stop-color="#2061EB"/>
<stop offset="1" stop-color="#5FB1FF"/>
</linearGradient>
</defs>
</svg>
