<svg width="342" height="338" viewBox="0 0 342 338" fill="none" xmlns="http://www.w3.org/2000/svg">
<path d="M15.4187 231.988C50.574 310.867 138.953 355.211 212.835 331.043C220.678 328.451 228.032 325.228 234.965 321.375C241.828 317.523 248.201 313.109 254.013 308.135L254.363 307.855C254.643 307.645 254.923 307.365 255.204 307.155L294.281 273.529L302.194 266.664C341.691 229.396 353.387 166.769 326.635 106.804C291.479 27.9245 203.101 -16.4189 129.218 7.74932C115.562 12.2327 103.377 18.7476 92.8025 26.8737L83.4184 34.9298L46.5123 66.4535C1.76268 102.671 -12.7337 168.801 15.4187 231.988Z" fill="url(#paint0_linear)" stroke="#082076" stroke-width="0.5" stroke-miterlimit="10"/>
<path d="M47.2128 155.281C49.4537 168.24 53.5155 181.41 59.258 194.37C94.4134 273.25 182.792 317.593 256.674 293.425C270.821 288.801 283.426 282.006 294.281 273.39C297.012 271.218 299.673 268.976 302.194 266.524C341.692 229.256 353.387 166.629 326.635 106.664C298.413 43.3365 235.875 2.28562 174.178 1.02467C158.982 0.744457 143.855 2.84606 129.289 7.60964C115.633 12.093 103.447 18.6079 92.8727 26.734C89.5813 29.2559 86.4299 31.9179 83.4886 34.79C52.6752 64.002 38.9491 108.626 47.2128 155.281Z" fill="#A4D7FF" stroke="#082076" stroke-width="0.5" stroke-miterlimit="10"/>
<path d="M83.6282 187.855C79.5664 178.678 76.4851 169.221 74.4542 159.624C66.1906 119.834 77.3955 80.7445 104.427 55.1052C106.948 52.7234 109.68 50.3416 112.621 48.0999C122.075 40.8845 132.72 35.2803 144.345 31.4274C161.222 25.8932 179.15 24.3521 197.568 26.8039C246.099 33.1787 290.709 67.0842 311.228 113.179C332.797 161.585 324.534 213.775 290.149 246.139C287.978 248.171 285.737 250.132 283.215 252.093L279.434 255.036H279.224C270.54 261.2 260.876 266.034 250.441 269.466C238.606 273.319 226.351 275.211 214.025 275.211C161.152 275.351 107.369 241.165 83.6282 187.855ZM270.75 231.148C298.132 205.368 304.575 161.235 286.787 121.305C269.56 82.6359 233.004 54.3346 193.576 49.1507C179.71 47.3293 166.334 48.4502 153.729 52.5833C145.115 55.3854 137.132 59.5886 130.129 64.9827C127.958 66.6639 125.857 68.4153 123.966 70.2366C102.326 90.8321 93.4325 122.776 100.295 155.771C101.976 163.967 104.637 172.093 108.139 179.939C127.888 224.283 171.587 253.004 213.815 253.004C223.059 253.004 232.303 251.603 241.127 248.731C250.091 245.789 258.285 241.445 265.498 235.771L266.478 235.001C268.019 233.6 269.419 232.409 270.75 231.148Z" fill="url(#paint1_linear)" stroke="#082076" stroke-width="0.5" stroke-miterlimit="10"/>
<defs>
<linearGradient id="paint0_linear" x1="124.595" y1="204.782" x2="25.1093" y2="280.626" gradientUnits="userSpaceOnUse">
<stop offset="0.2615" stop-color="#2061EB"/>
<stop offset="1" stop-color="#5FB1FF"/>
</linearGradient>
<linearGradient id="paint1_linear" x1="323.142" y1="150.539" x2="71.8242" y2="150.539" gradientUnits="userSpaceOnUse">
<stop offset="0.2615" stop-color="#2061EB"/>
<stop offset="1" stop-color="#5FB1FF"/>
</linearGradient>
</defs>
</svg>
