<svg width="211" height="44" viewBox="0 0 211 44" fill="none" xmlns="http://www.w3.org/2000/svg">
<path d="M81.4075 9.21988C83.4804 10.3874 85.115 12.0153 86.3164 14.1082C87.5128 16.2011 88.1135 18.5653 88.1135 21.2008C88.1135 23.8363 87.5128 26.2102 86.3164 28.3128C85.1199 30.4153 83.4804 32.0528 81.4075 33.2156C79.3347 34.3831 77.0205 34.9645 74.4701 34.9645C71.9196 34.9645 69.6055 34.3831 67.5327 33.2156C65.4598 32.048 63.8252 30.4153 62.6238 28.3128C61.4273 26.2102 60.8267 23.8411 60.8267 21.2008C60.8267 18.5653 61.4273 16.2011 62.6238 14.1082C63.8202 12.0153 65.4598 10.3874 67.5327 9.21988C69.6055 8.05231 71.9196 7.47095 74.4701 7.47095C77.0205 7.47095 79.3347 8.05231 81.4075 9.21988ZM70.2554 13.4783C69.0442 14.1905 68.0989 15.2079 67.4145 16.5402C66.7301 17.8725 66.3904 19.4228 66.3904 21.2008C66.3904 22.9739 66.7301 24.5291 67.4145 25.8613C68.0989 27.1936 69.0442 28.211 70.2554 28.9232C71.4667 29.6354 72.8699 29.989 74.4701 29.989C76.0654 29.989 77.4735 29.6354 78.6847 28.9232C79.896 28.2159 80.8413 27.1936 81.5257 25.8613C82.2101 24.5291 82.5498 22.9788 82.5498 21.2008C82.5498 19.4276 82.2101 17.8725 81.5257 16.5402C80.8413 15.2079 79.896 14.1905 78.6847 13.4783C77.4735 12.771 76.0703 12.4125 74.4701 12.4125C72.8699 12.4125 71.4667 12.771 70.2554 13.4783Z" fill="#4199FF"/>
<path d="M102.796 21.0453L114.352 34.6976H107.745L97.656 22.4164V34.6976H92.2056V7.85327H97.656V19.9068L107.779 7.85327H114.347L102.796 21.0453Z" fill="#4199FF"/>
<path d="M138.157 10.1696C140.397 11.8943 141.879 14.2391 142.603 17.204H136.882C136.291 15.7603 135.37 14.617 134.12 13.7837C132.869 12.9456 131.367 12.5289 129.619 12.5289C128.177 12.5289 126.877 12.8826 125.715 13.5947C124.558 14.3069 123.652 15.3194 123.012 16.6372C122.367 17.955 122.047 19.5004 122.047 21.2784C122.047 23.0273 122.367 24.5631 123.012 25.8808C123.657 27.1986 124.558 28.2111 125.715 28.9233C126.872 29.6355 128.177 29.9891 129.619 29.9891C131.372 29.9891 132.874 29.5725 134.12 28.7344C135.37 27.8962 136.291 26.7577 136.882 25.314H142.603C141.879 28.279 140.402 30.6238 138.157 32.3485C135.917 34.0732 133.096 34.9356 129.693 34.9356C127.089 34.9356 124.789 34.359 122.795 33.206C120.796 32.053 119.255 30.4348 118.157 28.3565C117.064 26.2781 116.513 23.9188 116.513 21.2832C116.513 18.6235 117.059 16.2496 118.157 14.1713C119.25 12.0929 120.791 10.4748 122.776 9.32173C124.76 8.1687 127.064 7.59218 129.693 7.59218C133.096 7.58734 135.917 8.44969 138.157 10.1696Z" fill="#4199FF"/>
<path d="M166.424 9.21988C168.497 10.3874 170.132 12.0153 171.333 14.1082C172.529 16.2011 173.13 18.5653 173.13 21.2008C173.13 23.8363 172.529 26.2102 171.333 28.3128C170.137 30.4153 168.497 32.0528 166.424 33.2156C164.351 34.3831 162.037 34.9645 159.487 34.9645C156.936 34.9645 154.622 34.3831 152.549 33.2156C150.476 32.048 148.842 30.4153 147.64 28.3128C146.444 26.2102 145.843 23.8411 145.843 21.2008C145.843 18.5653 146.444 16.2011 147.64 14.1082C148.837 12.0153 150.476 10.3874 152.549 9.21988C154.622 8.05231 156.936 7.47095 159.487 7.47095C162.037 7.47095 164.351 8.05231 166.424 9.21988ZM155.277 13.4783C154.066 14.1905 153.12 15.2079 152.436 16.5402C151.752 17.8725 151.412 19.4228 151.412 21.2008C151.412 22.9739 151.752 24.5291 152.436 25.8613C153.12 27.1936 154.066 28.211 155.277 28.9232C156.488 29.6354 157.891 29.989 159.492 29.989C161.087 29.989 162.495 29.6354 163.706 28.9232C164.917 28.2159 165.863 27.1936 166.547 25.8613C167.232 24.5291 167.571 22.9788 167.571 21.2008C167.571 19.4276 167.232 17.8725 166.547 16.5402C165.863 15.2079 164.917 14.1905 163.706 13.4783C162.495 12.771 161.092 12.4125 159.492 12.4125C157.891 12.4125 156.488 12.771 155.277 13.4783Z" fill="#4199FF"/>
<path d="M182.678 7.85327V34.6976H177.227V7.85327H182.678Z" fill="#4199FF"/>
<path d="M210.732 34.6976H205.281L193.071 16.4477V34.6976H187.62V7.85327H193.071L205.281 26.2582V7.85327H210.732V34.6976Z" fill="#4199FF"/>
<path d="M13.545 26.6554C21.0256 26.6554 27.0899 20.6884 27.0899 13.3277C27.0899 5.96702 21.0256 0 13.545 0C6.06428 0 0 5.96702 0 13.3277C0 20.6884 6.06428 26.6554 13.545 26.6554Z" fill="#4199FF"/>
<path d="M33.7463 44.0002C39.4513 44.0002 44.0761 39.4495 44.0761 33.836C44.0761 28.2225 39.4513 23.6719 33.7463 23.6719C28.0413 23.6719 23.4165 28.2225 23.4165 33.836C23.4165 39.4495 28.0413 44.0002 33.7463 44.0002Z" fill="#4199FF"/>
<path d="M44.3243 19.2569C48.1699 16.2002 48.7691 10.6547 45.6625 6.87077C42.556 3.08682 36.9201 2.49729 33.0745 5.55403C29.2288 8.61077 28.6297 14.1562 31.7363 17.9402C34.8428 21.7242 40.4787 22.3137 44.3243 19.2569Z" fill="#4199FF"/>
<path d="M13.5451 42.4623C17.1998 42.4623 20.1625 39.5471 20.1625 35.9511C20.1625 32.355 17.1998 29.4398 13.5451 29.4398C9.89044 29.4398 6.92773 32.355 6.92773 35.9511C6.92773 39.5471 9.89044 42.4623 13.5451 42.4623Z" fill="#4199FF"/>
</svg>
