<svg width="64" height="64" viewBox="0 0 64 64" fill="none" xmlns="http://www.w3.org/2000/svg">
<path d="M62.794 32.589C41.5821 37.2284 37.217 41.5949 32.5791 62.8135C32.4426 63.3593 31.6924 63.3593 31.6242 62.8135C26.9862 41.5949 22.6211 37.2284 1.40923 32.589C0.863589 32.4525 0.863589 31.7021 1.40923 31.6338C22.6211 26.9944 26.9862 22.6279 31.6242 1.40936C31.7606 0.863546 32.5109 0.863546 32.5791 1.40936C37.217 22.6279 41.5821 26.9944 62.794 31.6338C63.2714 31.7021 63.2714 32.4525 62.794 32.589Z" fill="#A4D7FF"/>
<path d="M62.794 32.589C41.5821 37.2284 37.217 41.5949 32.5791 62.8135C32.4426 63.3593 31.6924 63.3593 31.6242 62.8135C26.9862 41.5949 22.6211 37.2284 1.40923 32.589C0.863589 32.4525 0.863589 31.7021 1.40923 31.6338C22.6211 26.9944 26.9862 22.6279 31.6242 1.40936C31.7606 0.863546 32.5109 0.863546 32.5791 1.40936C37.217 22.6279 41.5821 26.9944 62.794 31.6338C63.2714 31.7021 63.2714 32.4525 62.794 32.589Z" stroke="#082076" stroke-width="0.5" stroke-miterlimit="10"/>
</svg>
